<?xml version="1.0" encoding="UTF-8"?>
<svg version="1.1" xmlns="http://www.w3.org/2000/svg" width="1536" height="1024">
<path d="M0 0 C506.88 0 1013.76 0 1536 0 C1536 337.92 1536 675.84 1536 1024 C1029.12 1024 522.24 1024 0 1024 C0 686.08 0 348.16 0 0 Z " fill="#FDFDFD" transform="translate(0,0)"/>
<path d="M0 0 C0.69577148 0.15597656 1.39154297 0.31195313 2.10839844 0.47265625 C24.61427255 5.58547578 49.01113681 15.60369493 62 36 C64.62849942 42.0291015 65.49360829 47.58927444 65.375 54.125 C65.36484863 54.9490332 65.35469727 55.77306641 65.34423828 56.62207031 C64.87153702 75.58142165 58.56236592 95.01413606 45.4375 109.0625 C27.5901343 126 27.5901343 126 20 126 C20 126.99 20 127.98 20 129 C21.216875 129.226875 22.43375 129.45375 23.6875 129.6875 C36.82276978 132.65685455 51.31711019 138.33426241 59 150 C67.29230318 163.50394624 66.89265223 177.21457433 64.14453125 192.2890625 C59.20586051 208.30181746 41.25388898 223.37230052 26.88867188 231.02734375 C25.9537793 231.50880859 25.9537793 231.50880859 25 232 C24.28908203 232.36738281 23.57816406 232.73476563 22.84570312 233.11328125 C-2.05115546 245.76266225 -28.42844517 254.56638314 -56 259 C-57.35085693 259.22429687 -57.35085693 259.22429687 -58.72900391 259.453125 C-90.90094588 264.73636021 -90.90094588 264.73636021 -102.875 257.1875 C-109.23533372 250.64009764 -108.75680873 242.52300556 -109 234 C-109.04084717 232.93628174 -109.04084717 232.93628174 -109.08251953 231.85107422 C-109.57781466 217.82394233 -108.36247946 203.97045729 -107.13549805 190.01391602 C-106.42465809 181.84072575 -105.82254545 173.7108381 -105.65820312 165.50366211 C-105.62662109 164.28557861 -105.59503906 163.06749512 -105.5625 161.8125 C-105.53949829 160.8737352 -105.51649658 159.9349704 -105.49279785 158.96775818 C-105.24677852 151.48586173 -104.40714337 144.29217378 -103.15625 136.91796875 C-100.9361501 123.15575231 -99.3759844 109.36258331 -97.9375 95.5 C-97.67693268 93.03691949 -97.41610615 90.57386639 -97.1550293 88.11083984 C-95.80903638 75.32113821 -94.55755855 62.52850372 -93.48800659 49.71276855 C-93.01948428 44.13938162 -92.5129106 38.56945853 -92 33 C-91.91250488 31.9987207 -91.82500977 30.99744141 -91.73486328 29.96582031 C-90.52143709 17.0000112 -90.52143709 17.0000112 -87.3359375 12.8125 C-84.96155623 11.03393725 -82.77271621 10.05970935 -80 9 C-78.83210937 8.48566406 -77.66421875 7.97132813 -76.4609375 7.44140625 C-53.16939433 -2.62476867 -24.86691175 -5.86541407 0 0 Z " fill="#5F202F" transform="translate(968,344)"/>
<path d="M0 0 C8.22233665 3.89315182 14.76460087 8.93791891 18.78662109 17.26171875 C20.59871844 23.19022598 20.0330099 29.57224104 19.90625 35.71484375 C19.89473262 37.12693992 19.8849552 38.53905141 19.87695312 39.95117188 C19.82262863 45.55437294 19.69393873 51.0713867 19.09077454 56.64303589 C18.40240389 64.12536715 18.45363154 71.60470779 18.46435547 79.1105957 C18.46299783 80.71822652 18.46121587 82.32585702 18.45904541 83.93348694 C18.45451605 88.26781878 18.45624152 92.60212661 18.4594245 96.93645883 C18.46196926 101.48467333 18.45960489 106.03288588 18.45803833 110.58110046 C18.45622372 118.21105313 18.45860529 125.84099608 18.46337891 133.47094727 C18.46882992 142.28529902 18.46704993 151.09962767 18.4615525 159.91397887 C18.4570128 167.49724853 18.45637473 175.08051124 18.45899117 182.66378182 C18.46054796 187.18654172 18.46076388 191.70929075 18.45745468 196.23204994 C18.45456319 200.47974034 18.45657517 204.72740094 18.46234894 208.97508812 C18.46366925 210.53191961 18.4632948 212.08875362 18.46108627 213.64558411 C18.45834636 215.77334403 18.46179044 217.90100892 18.46676636 220.02876282 C18.46714338 221.21833745 18.46752041 222.40791208 18.46790886 223.63353443 C18.59025374 226.81152614 19.02170459 229.77799496 19.59375 232.90234375 C20.74751079 247.11008373 20.74751079 247.11008373 16.0234375 253.35546875 C12.13324246 257.56453224 8.24256173 260.58542043 2.4921875 261.2734375 C-5.8064959 261.42984284 -11.43416071 260.44015519 -18.40625 255.90234375 C-19.39625 255.34546875 -20.38625 254.78859375 -21.40625 254.21484375 C-26.37265701 248.47243565 -25.93048996 238.09326025 -26.515625 230.78515625 C-26.59971619 229.74642365 -26.68380737 228.70769104 -26.77044678 227.63748169 C-27.61731087 216.3495377 -27.71218094 205.09156454 -27.65625 193.77734375 C-27.6541452 192.7047229 -27.65204041 191.63210205 -27.64987183 190.52697754 C-27.60861199 172.42410052 -26.90361541 154.41917991 -25.77745056 136.3556366 C-25.23805604 127.50206836 -24.98566898 118.64057217 -24.74829102 109.77441406 C-24.53091721 102.12595339 -24.06006182 94.52596228 -23.40625 86.90234375 C-24.72625 86.90234375 -26.04625 86.90234375 -27.40625 86.90234375 C-27.75816406 88.05605469 -28.11007812 89.20976562 -28.47265625 90.3984375 C-30.94375 97.7830018 -34.1815103 104.85725941 -37.34375 111.96484375 C-37.85739105 113.12394257 -37.85739105 113.12394257 -38.38140869 114.30645752 C-44.9368069 129.05807699 -52.0624903 143.49651801 -59.37573242 157.88476562 C-64.31629603 167.61832629 -69.12602186 177.34895833 -73.16552734 187.50146484 C-76.19710352 194.68646737 -81.21291847 199.71165716 -88.40625 202.83984375 C-93.41260754 204.38176284 -97.83242119 205.17794959 -102.62890625 202.80078125 C-104.99579919 201.2823971 -107.18917201 199.63104442 -109.40625 197.90234375 C-110.12296875 197.43054688 -110.8396875 196.95875 -111.578125 196.47265625 C-123.01301321 188.17591405 -123.55692514 170.33436371 -125.95214844 157.55053711 C-127.83317467 147.86903237 -130.4758056 138.69628476 -133.86645508 129.43969727 C-135.56380265 124.76505545 -136.89587362 120.96741567 -136.40625 115.90234375 C-137.89125 116.39734375 -137.89125 116.39734375 -139.40625 116.90234375 C-139.5921167 117.9289209 -139.7779834 118.95549805 -139.96948242 120.01318359 C-140.67871513 123.91757776 -141.39904902 127.81986286 -142.12231445 131.72167969 C-142.43056159 133.39269524 -142.73601743 135.06422874 -143.03833008 136.73632812 C-145.08219832 148.02691474 -147.64642092 159.01962245 -150.86758423 170.03265381 C-153.59449312 179.49765864 -154.9627559 188.92832644 -156.13891602 198.68041992 C-157.19236787 207.04654398 -158.83091525 215.21878207 -160.63793945 223.45092773 C-161.85741927 229.0605349 -162.8259921 234.57286738 -163.46875 240.27734375 C-164.49994756 248.79427175 -166.4024776 256.39937972 -173.40625 261.90234375 C-180.04997242 265.69875656 -186.36409533 267.21219927 -193.90234375 265.25390625 C-201.24756495 262.63780007 -206.88218936 258.53379969 -210.34375 251.40234375 C-212.49548043 244.31429057 -210.96592598 237.82630734 -209.4296875 230.78125 C-209.22404175 229.81310867 -209.018396 228.84496735 -208.80651855 227.8474884 C-208.13909421 224.71824037 -207.46068374 221.59150436 -206.78125 218.46484375 C-206.31643093 216.30227577 -205.85175033 214.13967802 -205.38720703 211.97705078 C-202.97847782 200.81959641 -200.4779716 189.70781366 -197.59960938 178.66137695 C-195.24879385 169.54534479 -193.26408144 160.35394931 -191.28125 151.15234375 C-191.01948975 149.94011642 -191.01948975 149.94011642 -190.75244141 148.70339966 C-188.98937233 140.52291994 -187.27110598 132.34115687 -185.73144531 124.11523438 C-184.29795323 116.47201631 -182.34756618 109.29418015 -179.75732422 101.96142578 C-177.59610764 95.75350348 -175.95585568 89.4756205 -174.40625 83.08984375 C-170.868016 68.5183945 -166.82151784 54.1168 -162.2578125 39.83203125 C-161.35677776 36.73214109 -160.7355596 33.62749587 -160.09375 30.46484375 C-158.90868742 25.72459341 -157.62364194 22.98091595 -153.59765625 20.1484375 C-144.00004537 14.69097249 -135.53437402 12.38141564 -124.40625 13.90234375 C-119.25342861 15.47813011 -116.4052669 18.3318139 -113.78125 22.96484375 C-110.4112313 30.54738582 -108.29674989 38.67098051 -106.04785156 46.64111328 C-105.52556738 48.48182716 -104.98090791 50.31618086 -104.4296875 52.1484375 C-103.04564395 56.85278755 -102.15869111 61.43803782 -101.54296875 66.3046875 C-100.48999135 73.8659929 -98.81625778 81.18804506 -96.96875 88.58984375 C-96.66904297 89.81767578 -96.36933594 91.04550781 -96.06054688 92.31054688 C-94.47151488 98.78042334 -92.80081152 105.21208073 -90.93725586 111.60864258 C-90.40625 113.90234375 -90.40625 113.90234375 -90.40625 117.90234375 C-88.75625 117.90234375 -87.10625 117.90234375 -85.40625 117.90234375 C-85.14070312 117.04745361 -84.87515625 116.19256348 -84.6015625 115.31176758 C-82.68287106 109.83902945 -79.99216617 104.74122858 -77.39599609 99.56616211 C-76.42979916 97.63686656 -75.47425637 95.70257036 -74.51953125 93.76757812 C-71.12623471 86.94803515 -67.52625196 80.32704554 -63.59765625 73.80078125 C-57.58521243 63.77885837 -52.48793649 53.32603563 -47.34375 42.83984375 C-36.76660343 21.32069498 -36.76660343 21.32069498 -31.53515625 11.78125 C-31.18992416 11.13598862 -30.84469208 10.49072723 -30.48899841 9.82591248 C-23.99980238 -1.76313475 -12.08429747 -3.89413714 0 0 Z " fill="#602130" transform="translate(798.40625,344.09765625)"/>
<path d="M0 0 C6.16360473 2.81994988 11.96832587 6.7649888 15.75 12.4375 C16.46725174 18.38044297 15.36539922 23.10897697 13.5625 28.75 C8.4637469 44.79466628 6.19894958 61.81726848 4.1484375 78.4921875 C2.82272727 88.29204545 2.82272727 88.29204545 0.75 92.4375 C0.47464882 94.00455097 0.24129701 95.57911739 0.03125 97.15625 C-0.09636719 98.08824219 -0.22398437 99.02023437 -0.35546875 99.98046875 C-0.55076172 101.44419922 -0.55076172 101.44419922 -0.75 102.9375 C-1.00717228 104.86501898 -1.26743875 106.79212844 -1.53125 108.71875 C-1.70237305 110.00362305 -1.70237305 110.00362305 -1.87695312 111.31445312 C-2.25 113.4375 -2.25 113.4375 -3.25 115.4375 C-4.18564488 120.97603554 -4.37223015 126.58605769 -4.54101562 132.18994141 C-4.88468194 143.43302496 -5.84193461 154.50245609 -8.77954102 165.40234375 C-9.72947966 169.51167875 -9.61779597 173.85398664 -9.76757812 178.0625 C-9.92446136 181.41328907 -10.14958484 184.1460607 -11.25 187.33984375 C-12.67056378 191.74026202 -12.67599618 196.0271518 -12.8125 200.625 C-12.87247754 202.41028884 -12.93612108 204.19545931 -13.00390625 205.98046875 C-13.03979858 207.1564563 -13.03979858 207.1564563 -13.07641602 208.35620117 C-13.25 210.4375 -13.25 210.4375 -14.25 213.4375 C-14.45785119 215.71015073 -14.61720473 217.98735617 -14.75 220.265625 C-14.79060547 220.93285583 -14.83121094 221.60008667 -14.87304688 222.28753662 C-15.00253391 224.42064869 -15.12673867 226.55401977 -15.25 228.6875 C-15.37366237 230.80666718 -15.49857687 232.9257296 -15.62695312 235.0446167 C-15.74392966 236.97780485 -15.85646159 238.91126044 -15.96875 240.84472656 C-16.15673013 243.24604219 -16.4246787 245.64238138 -16.77026367 248.02612305 C-17.2147997 251.18719269 -17.3890687 254.19072497 -17.42578125 257.37890625 C-17.44962891 258.45720703 -17.47347656 259.53550781 -17.49804688 260.64648438 C-17.54108694 262.88587215 -17.57229847 265.1255179 -17.59179688 267.36523438 C-17.75347485 273.64811553 -17.92084618 277.72387426 -22.25 282.4375 C-27.26462737 286.61973983 -33.02979693 289.06593811 -39.5 289.8125 C-48.72790727 288.88970927 -58.71776293 283.83341342 -65.36035156 277.390625 C-67.9468408 273.34848368 -67.792185 270.2280061 -67.7109375 265.52734375 C-67.71088211 264.65550446 -67.71082672 263.78366516 -67.71076965 262.88540649 C-67.70365395 260.04801711 -67.66583322 257.21208977 -67.625 254.375 C-67.60927169 252.41593827 -67.59405633 250.45687237 -67.5793457 248.49780273 C-67.36822641 227.37438202 -66.05153574 206.56375951 -62.60693359 185.70703125 C-61.65303975 179.64178013 -60.97369249 173.533545 -60.25 167.4375 C-71.72230652 168.63609919 -82.19551396 170.36550141 -92.92529297 174.67358398 C-99.23850338 177.17488398 -105.59830196 178.9366009 -112.1875 180.5625 C-126.34080774 183.3232773 -126.34080774 183.3232773 -137.25 191.4375 C-137.64244824 193.39281352 -137.64244824 193.39281352 -137.73657227 195.55078125 C-137.82159752 196.78852295 -137.82159752 196.78852295 -137.90834045 198.05126953 C-137.96050217 198.94185059 -138.01266388 199.83243164 -138.06640625 200.75 C-138.12779282 201.67409668 -138.18917938 202.59819336 -138.25242615 203.55029297 C-138.44750888 206.51222034 -138.63036575 209.47475081 -138.8125 212.4375 C-138.93860445 214.4023984 -139.06554832 216.36724312 -139.19335938 218.33203125 C-139.25526459 219.28513184 -139.3171698 220.23823242 -139.38095093 221.22021484 C-139.61854828 224.86162795 -139.85794435 228.50291778 -140.09991455 232.14404297 C-140.22498651 234.05526869 -140.34179801 235.96703274 -140.45654297 237.87890625 C-140.78044581 242.42162346 -141.47751535 246.45999835 -142.78515625 250.828125 C-144.88066387 257.98004548 -144.68505492 265.07487222 -144.68945312 272.47265625 C-144.82542147 280.15252326 -145.8034292 284.47675546 -150.92578125 290.36328125 C-156.90831949 295.4320189 -162.77150649 296.94758266 -170.5703125 296.74609375 C-179.11308703 295.76230485 -186.71928127 292.10485767 -192.25 285.4375 C-193.92189912 281.89656343 -194.50577624 279.08616592 -194.515625 275.18359375 C-194.51965332 274.17417725 -194.52368164 273.16476074 -194.52783203 272.12475586 C-194.51864746 271.05233643 -194.50946289 269.97991699 -194.5 268.875 C-194.49468262 267.76326416 -194.48936523 266.65152832 -194.48388672 265.50610352 C-194.35411204 254.02597251 -193.24181743 242.74973525 -191.70703125 231.3828125 C-190.57209767 222.90067733 -189.97468849 214.56284176 -189.64428711 206.01513672 C-189.39339493 200.10318486 -188.74268078 194.40971746 -187.7109375 188.578125 C-187.18610491 185.002147 -187.02604722 181.48574789 -186.875 177.875 C-186.59912216 171.67749419 -185.59476486 165.86275707 -184.25 159.8125 C-182.69079611 152.72105519 -181.92807252 145.94363011 -181.75 138.6875 C-181.53851584 130.53952572 -180.71974021 122.6661495 -179.375 114.625 C-179.21322266 113.64112305 -179.05144531 112.65724609 -178.88476562 111.64355469 C-178.09808032 107.17597801 -177.15892066 102.95276649 -175.63671875 98.67578125 C-174.28367923 94.8403232 -173.95120487 91.53068823 -173.9375 87.4375 C-173.64127136 77.78044648 -171.11089795 68.66350783 -168.72265625 59.34765625 C-167.83584375 55.88661652 -167.02559866 52.45712227 -166.43359375 48.93359375 C-164.79922069 39.24042524 -164.79922069 39.24042524 -161.1875 35.6875 C-153.88513448 30.70722561 -143.76024612 30.55033149 -135.25 31.4375 C-128.61285325 33.00166834 -124.11933944 34.61683441 -120.25 40.4375 C-119.81982422 43.48071289 -119.81982422 43.48071289 -119.9296875 46.84765625 C-119.96674805 48.08660645 -120.00380859 49.32555664 -120.04199219 50.60205078 C-120.37314427 56.70815319 -120.78698388 62.78776866 -121.375 68.875 C-121.4373584 69.53302612 -121.4997168 70.19105225 -121.56396484 70.86901855 C-122.68226169 82.4282042 -124.68903291 93.64954575 -127.04394531 105.02148438 C-129.63665218 117.74694626 -131.07739693 130.50867725 -132.25 143.4375 C-130.18586586 143.02900569 -128.12379272 142.61009873 -126.0625 142.1875 C-124.91394531 141.95546875 -123.76539063 141.7234375 -122.58203125 141.484375 C-117.87575223 140.4226311 -113.30219858 138.95242951 -108.70043945 137.51220703 C-103.13170008 135.77771395 -97.5326575 134.14682317 -91.9375 132.5 C-77.04335873 128.13170777 -77.04335873 128.13170777 -62.25 123.4375 C-61.55302002 123.30617676 -60.85604004 123.17485352 -60.13793945 123.03955078 C-57.74941058 122.46487931 -56.20170218 121.9434517 -54.25 120.4375 C-52.67380047 116.71006924 -52.26323447 112.93807293 -51.8125 108.9375 C-51.52303022 106.8436261 -51.23270413 104.74987036 -50.94140625 102.65625 C-50.77427124 101.2630957 -50.77427124 101.2630957 -50.60375977 99.84179688 C-50.25 97.4375 -50.25 97.4375 -49.25 94.4375 C-49.17147566 92.62562351 -49.11200706 90.81290142 -49.0625 89 C-48.65775942 82.91539991 -47.20715217 77.65481021 -45.3125 71.875 C-43.07115929 65.00324722 -41.77261749 58.64766164 -41.3125 51.4375 C-40.63643099 41.45836819 -37.65006344 32.93203235 -34.06347656 23.65869141 C-32.92292195 20.54441594 -32.10032495 17.39285537 -31.25 14.1875 C-29.34144628 7.79549033 -26.07503675 2.90342795 -20.4140625 -0.74609375 C-14.11706629 -3.12167535 -6.21603187 -2.27011822 0 0 Z " fill="#5F2030" transform="translate(356.25,317.5625)"/>
<path d="M0 0 C4.17572874 3.78489699 6.47809849 6.73903565 6.8359375 12.375 C6.78205619 17.27385385 6.11328733 22.01206026 5.3203125 26.8359375 C5.18794189 27.65612869 5.05557129 28.47631989 4.91918945 29.32136536 C4.47997525 32.02762463 4.03395497 34.7326847 3.5859375 37.4375 C3.43112915 38.37421539 3.2763208 39.31093079 3.11682129 40.27603149 C2.13187929 46.21548272 1.12650133 52.15119884 0.10644531 58.0847168 C-0.24383602 60.13070809 -0.59078137 62.17727302 -0.93457031 64.22436523 C-1.44096359 67.23816816 -1.95764696 70.25004981 -2.4765625 73.26171875 C-2.62665771 74.16701828 -2.77675293 75.07231781 -2.93139648 76.00505066 C-3.88706861 81.46868331 -5.38473116 86.27883585 -7.4140625 91.4375 C-7.77445507 94.54825693 -7.84936795 97.57455372 -7.91015625 100.703125 C-8.50298436 105.09648679 -9.87626605 108.91579919 -11.32885742 113.09179688 C-13.23978803 118.9832239 -14.5035414 125.02228395 -15.8515625 131.0625 C-16.46251285 133.73031382 -17.08045289 136.39648928 -17.69921875 139.0625 C-18.14225342 140.97289062 -18.14225342 140.97289062 -18.59423828 142.921875 C-26.08079205 175.02621517 -40.27600836 208.05882877 -68.9140625 226.5 C-74.02530524 229.5783621 -79.19626981 230.8892932 -85.0390625 231.875 C-89.80050916 232.70586732 -94.36255806 233.65406926 -98.9765625 235.125 C-109.52409092 238.12723324 -121.53110214 237.75289646 -131.23095703 232.44287109 C-136.09663534 229.64466049 -140.77412141 226.59280779 -145.4140625 223.4375 C-146.37054688 222.79683594 -147.32703125 222.15617188 -148.3125 221.49609375 C-158.91172429 213.75565077 -168.53409066 200.34762504 -170.81065369 187.25389099 C-170.91825516 186.53202103 -171.02585663 185.81015106 -171.13671875 185.06640625 C-171.31884666 183.89942955 -171.31884666 183.89942955 -171.50465393 182.70887756 C-172.72662354 174.26633769 -172.91463668 165.89187306 -172.8515625 157.375 C-172.8501828 156.55765381 -172.8488031 155.74030762 -172.84738159 154.89819336 C-172.79317892 137.20133962 -171.11378075 119.71835703 -169.11994934 102.14930725 C-168.57041329 97.21515762 -168.18815785 92.30033557 -167.90234375 87.34375 C-167.55967616 81.71631134 -166.80669761 76.42202306 -165.5390625 70.9375 C-163.97691119 63.72880804 -162.87946244 56.5760815 -162.0390625 49.25 C-160.67102446 37.63802177 -158.00131939 26.4551662 -155.08691406 15.14575195 C-154.26661375 11.84401343 -153.56814205 8.52370591 -152.90698242 5.18676758 C-152.4140625 3.4375 -152.4140625 3.4375 -150.7890625 1.5 C-144.2984783 -1.4036824 -137.91762271 -1.90310417 -130.9140625 -1.875 C-129.70943359 -1.89916992 -129.70943359 -1.89916992 -128.48046875 -1.92382812 C-121.54605389 -1.92944759 -116.21376448 -0.7632042 -110.70849609 3.56420898 C-107.83784285 7.1590928 -107.76684794 9.80337759 -107.984375 14.203125 C-108.01327316 15.3210141 -108.01327316 15.3210141 -108.04275513 16.46148682 C-108.31469877 24.42182868 -109.25480155 32.29679348 -110.2890625 40.1875 C-110.66466355 43.17001691 -111.0334134 46.15337037 -111.40234375 49.13671875 C-111.4926738 49.85919296 -111.58300385 50.58166718 -111.67607117 51.32603455 C-112.49566795 57.93745493 -113.14315636 64.56048582 -113.64208984 71.20410156 C-114.07381451 76.35933393 -114.92818768 81.39641268 -115.8671875 86.48046875 C-117.4267635 95.02102354 -118.40195487 103.53723713 -119.1015625 112.1875 C-119.16376984 112.94309204 -119.22597717 113.69868408 -119.29006958 114.47717285 C-120.27297792 126.70828517 -120.75523331 138.91853535 -120.8515625 151.1875 C-120.86359711 151.94188354 -120.87563171 152.69626709 -120.88803101 153.47351074 C-121.06764748 166.52528388 -119.55580348 178.68552495 -113.4140625 190.4375 C-113.0840625 191.4275 -112.7540625 192.4175 -112.4140625 193.4375 C-106.80103048 194.63286793 -102.48246761 194.93814847 -97.4375 191.95703125 C-82.03131442 180.38752123 -74.85034019 159.87619934 -68.4140625 142.4375 C-68.01574219 141.3959375 -67.61742187 140.354375 -67.20703125 139.28125 C-64.26472711 131.12251022 -62.5707785 122.63729965 -60.70703125 114.18359375 C-59.50420253 108.76127477 -58.16627928 103.38025747 -56.7890625 98 C-55.00023597 90.99782567 -53.46329252 84.01080249 -52.1875 76.89453125 C-51.58694385 74.21022723 -50.87950567 71.86534388 -49.953125 69.296875 C-47.99997698 63.60969691 -47.24433647 57.81234861 -46.4140625 51.875 C-46.07069003 49.55053252 -45.72564306 47.22631176 -45.37890625 44.90234375 C-45.21374512 43.78714355 -45.04858398 42.67194336 -44.87841797 41.52294922 C-43.91454388 35.11840624 -42.79271886 28.76766863 -41.4140625 22.4375 C-41.165354 21.2923291 -41.165354 21.2923291 -40.91162109 20.12402344 C-40.36277988 17.67745253 -39.77055557 15.24536703 -39.1640625 12.8125 C-38.99592041 12.06548828 -38.82777832 11.31847656 -38.65454102 10.54882812 C-37.13314486 4.79508945 -34.39899654 1.66099785 -29.4140625 -1.5625 C-20.69956921 -5.25699392 -7.73726259 -5.74581526 0 0 Z " fill="#5F2030" transform="translate(569.4140625,358.5625)"/>
<path d="M0 0 C3.55182864 3.14253588 4.78707091 5.43276087 5.15234375 10.20703125 C5.02504892 14.37160898 4.48067249 18.46404728 3.875 22.58203125 C3.70871094 23.85433594 3.54242187 25.12664062 3.37109375 26.4375 C2.16344668 35.0051379 2.16344668 35.0051379 0.875 37.58203125 C0.54679415 40.06147723 0.26062532 42.53288199 0 45.01953125 C-0.72245324 51.47927646 -1.56466941 57.90890553 -2.5625 64.33203125 C-2.67255371 65.06220459 -2.78260742 65.79237793 -2.89599609 66.54467773 C-3.60532343 71.02076077 -4.5525632 75.38028524 -5.63671875 79.78125 C-7.26559182 86.70635079 -7.92544062 93.56550836 -8.5 100.64453125 C-9.41363638 110.90792627 -10.78574176 120.95714092 -12.75 131.08203125 C-14.5753923 140.52702845 -15.71617347 149.68179218 -15.84814453 159.30664062 C-15.9272232 164.37167915 -16.54018489 168.96264057 -17.61938477 173.90869141 C-18.57504091 178.96153291 -18.87031388 184.08438085 -19.25 189.20703125 C-19.33636719 190.30660156 -19.42273437 191.40617188 -19.51171875 192.5390625 C-19.72150664 195.21968549 -19.92583008 197.90060207 -20.125 200.58203125 C-11.23897758 201.04705631 -2.75928626 199.2942844 5.9375 197.70703125 C16.03154791 195.88200829 26.08972033 194.22792767 36.27758789 193.02001953 C39.36768094 192.64379782 42.43678843 192.21264489 45.51171875 191.73046875 C54.79720202 190.28903023 63.97057616 189.26553644 73.375 189.14453125 C74.24084717 189.12245605 75.10669434 189.10038086 75.9987793 189.07763672 C81.41443996 189.09583702 84.65260501 189.87440355 88.875 193.58203125 C91.58411542 197.97902787 91.02392173 201.9655687 90.75 206.95703125 C90.72679687 207.79492188 90.70359375 208.6328125 90.6796875 209.49609375 C90.40629876 214.92969491 89.64239517 218.40539827 85.875 222.58203125 C79.83407311 227.84840999 73.37221083 228.64407678 65.625 229.51953125 C55.85970736 230.78655341 46.29635637 232.42733017 36.6875 234.58203125 C27.77948527 236.5768355 18.8955453 238.30506077 9.875 239.70703125 C2.91753553 240.79310448 -3.43696054 242.15695558 -10.04296875 244.65234375 C-15.01841833 246.15317645 -20.12618012 246.68076822 -25.26806641 247.36083984 C-31.42180925 248.21619971 -37.27589904 249.57800809 -43.25 251.26953125 C-52.88232214 253.94620632 -61.86425182 255.50523532 -71.125 250.58203125 C-74.8074675 247.37559003 -77.83101887 243.16301261 -78.390625 238.25 C-78.38546875 237.43144531 -78.3803125 236.61289062 -78.375 235.76953125 C-78.38015625 234.95871094 -78.3853125 234.14789062 -78.390625 233.3125 C-78.125 230.58203125 -78.125 230.58203125 -77.1015625 227.21484375 C-76.04840866 223.29711148 -76.06306269 220.31306644 -76.25 216.26953125 C-76.52224989 205.47617865 -75.01401628 194.84564709 -73.63525391 184.16674805 C-73.45540806 182.76098752 -73.27620467 181.35514465 -73.09765625 179.94921875 C-73.00955688 179.25804459 -72.92145752 178.56687042 -72.83068848 177.85475159 C-72.22845655 172.93749342 -71.87645783 168.0361776 -71.62109375 163.08984375 C-71.3456728 158.09392853 -70.87138266 153.43853609 -69.63330078 148.59521484 C-68.70217288 144.90737592 -68.15499288 141.14906506 -67.5625 137.39453125 C-67.43101563 136.57082031 -67.29953125 135.74710938 -67.1640625 134.8984375 C-66.40455389 129.95779563 -65.89491637 125.07823838 -65.625 120.08203125 C-65.39115699 116.00848602 -64.93465982 112.42158086 -63.75 108.51953125 C-61.38851316 100.67847787 -60.57857952 92.54673485 -59.50878906 84.45068359 C-59.12221489 81.56121376 -58.71621093 78.67507729 -58.3046875 75.7890625 C-57.06679914 67.04577897 -55.8492764 58.36135728 -55.43359375 49.53125 C-55.18185776 47.12541867 -54.77930758 45.01376638 -54.21484375 42.67578125 C-53.26459464 38.58761928 -52.69589073 34.51840039 -52.1953125 30.3515625 C-52.03933594 29.05412109 -51.88335938 27.75667969 -51.72265625 26.41992188 C-51.48303491 24.39986968 -51.24836607 22.37968175 -51.02587891 20.35766602 C-50.80531934 18.37478293 -50.56303885 16.39435434 -50.3203125 14.4140625 C-50.18641113 13.24593018 -50.05250977 12.07779785 -49.91455078 10.87426758 C-48.85993675 6.47678141 -46.93703954 2.96337188 -43.30078125 0.19140625 C-30.60403764 -5.6645342 -12.18072109 -8.1279444 0 0 Z " fill="#5F2030" transform="translate(1145.125,351.41796875)"/>
<path d="M0 0 C8.89952964 6.99248757 14.62276003 15.17762093 16.06640625 26.53515625 C16.49680893 39.29451306 12.24780812 48.59328127 3.625 58.0625 C-5.57080879 65.37771011 -16.55311249 68.05298026 -28.1328125 66.76171875 C-38.65354978 64.49278866 -46.42919749 58.90322348 -52.3515625 50.13671875 C-57.73181417 40.84453111 -59.37716211 31.69689564 -57.375 21.0625 C-54.19514769 9.98047741 -47.3776607 2.86322877 -37.625 -2.8125 C-25.64321849 -9.32058995 -11.31402958 -6.49509106 0 0 Z " fill="#FAF8F8" transform="translate(1266.375,357.9375)"/>
<path d="M0 0 C4.13346851 4.44347865 6.66979908 8.84725615 7 15 C6.58194122 23.33234405 3.33360474 30.76112605 -2.5 36.6875 C-4.6156757 38.51786325 -6.83158572 40.1499951 -9.125 41.75 C-10.05022461 42.40005005 -10.05022461 42.40005005 -10.99414062 43.06323242 C-16.23381406 46.65907346 -21.55248148 49.42565301 -27.5 51.6875 C-28.65886719 52.12835937 -29.81773437 52.56921875 -31.01171875 53.0234375 C-40.63666911 56.56247344 -49.26886652 58.93531536 -59.5 59.3125 C-60.37011719 59.35117187 -61.24023438 59.38984375 -62.13671875 59.4296875 C-64.25750486 59.52290887 -66.37872185 59.60624136 -68.5 59.6875 C-68.25899153 54.33842936 -68.01035129 48.9897803 -67.75537109 43.64135742 C-67.67006449 41.83122798 -67.58665526 40.02100788 -67.50537109 38.21069336 C-67.22711218 32.03231499 -66.89185529 25.85971587 -66.5 19.6875 C-66.44549683 18.78420959 -66.39099365 17.88091919 -66.33483887 16.95025635 C-66.16467883 14.31419476 -65.95933576 11.68334399 -65.7421875 9.05078125 C-65.69313263 8.25165817 -65.64407776 7.4525351 -65.59353638 6.62919617 C-65.38623047 4.3918457 -65.38623047 4.3918457 -64.5 0.6875 C-49.60838961 -11.35125424 -14.74249411 -10.78182405 0 0 Z " fill="#FCFBFC" transform="translate(977.5,501.3125)"/>
<path d="M0 0 C1.13180191 -0.01354271 1.13180191 -0.01354271 2.28646851 -0.02735901 C3.87469578 -0.04177136 5.46298122 -0.05072561 7.05126953 -0.05444336 C9.43498494 -0.06627741 11.8160524 -0.11549348 14.19921875 -0.16601562 C24.20594437 -0.27067761 32.78479417 0.78575536 41.8359375 5.37109375 C44.59541457 10.89004789 43.48127191 20.32527973 42.22265625 26.265625 C36.07087852 43.04073696 20.27966101 57.03583233 4.62109375 65.0078125 C1.7212106 66.25061956 -1.18001202 67.34870319 -4.1640625 68.37109375 C-5.45957031 68.84675781 -5.45957031 68.84675781 -6.78125 69.33203125 C-12.66486009 71.32989262 -17.97677573 71.72653363 -24.1640625 71.37109375 C-24.58408633 63.15729433 -23.6431591 55.62197653 -21.91796875 47.62109375 C-19.82969619 36.9349708 -19.91158777 25.8713909 -19.734375 15.0234375 C-19.7034375 13.96253906 -19.6725 12.90164063 -19.640625 11.80859375 C-19.62080566 10.85855469 -19.60098633 9.90851563 -19.58056641 8.9296875 C-19.06510899 5.7632199 -18.55366746 4.53624758 -16.1640625 2.37109375 C-10.74252311 0.56235418 -5.68332174 0.04340062 0 0 Z " fill="#FCFBFB" transform="translate(943.1640625,383.62890625)"/>
<path d="M0 0 C8.89952964 6.99248757 14.62276003 15.17762093 16.06640625 26.53515625 C16.49680893 39.29451306 12.24780812 48.59328127 3.625 58.0625 C-5.57080879 65.37771011 -16.55311249 68.05298026 -28.1328125 66.76171875 C-38.65354978 64.49278866 -46.42919749 58.90322348 -52.3515625 50.13671875 C-57.73181417 40.84453111 -59.37716211 31.69689564 -57.375 21.0625 C-54.19514769 9.98047741 -47.3776607 2.86322877 -37.625 -2.8125 C-25.64321849 -9.32058995 -11.31402958 -6.49509106 0 0 Z M-46.375 12.0625 C-51.90585467 19.46188666 -52.46054242 27.05351244 -51.375 36.0625 C-49.31052059 45.19695639 -45.19275738 51.72781241 -37.375 56.875 C-29.4208418 61.44600963 -22.22206141 62.25916674 -13.375 59.9375 C-4.12173595 56.87226634 2.49120983 51.43471172 7.375 43.0625 C8.6944647 39.89578473 9.30252404 37.48074523 9.625 34.0625 C9.71265625 33.26972656 9.8003125 32.47695313 9.890625 31.66015625 C10.45192734 22.76861692 7.47963241 15.73172793 1.83203125 8.890625 C-4.22601903 3.04491875 -11.97823302 -0.05512316 -20.375 -0.375 C-31.5150607 0.22430706 -38.99290118 3.53856575 -46.375 12.0625 Z " fill="#622837" transform="translate(1266.375,357.9375)"/>
<path d="M0 0 C20.4047619 0 20.4047619 0 26 5 C27.72890969 8.45781937 27.48887512 12.21936575 27 16 C25.125 19.0625 25.125 19.0625 23 21 C22.34 21 21.68 21 21 21 C21.40992188 21.80824219 21.81984375 22.61648438 22.2421875 23.44921875 C22.78101563 24.51785156 23.31984375 25.58648437 23.875 26.6875 C24.40867187 27.74324219 24.94234375 28.79898437 25.4921875 29.88671875 C26.78688105 32.55995905 27.94023254 35.2271133 29 38 C26.36 38 23.72 38 21 38 C20.49210937 37.00097656 19.98421875 36.00195312 19.4609375 34.97265625 C18.76673417 33.66867973 18.07135992 32.36532611 17.375 31.0625 C17.04371094 30.40314453 16.71242188 29.74378906 16.37109375 29.06445312 C15.23786424 26.87521213 15.23786424 26.87521213 13 24 C11.02 23.67 9.04 23.34 7 23 C7 27.95 7 32.9 7 38 C4.69 38 2.38 38 0 38 C0 25.46 0 12.92 0 0 Z " fill="#5D2634" transform="translate(1232,369)"/>
<path d="M0 0 C2.76771273 0.04472067 4.14021868 0.22754137 6.6875 1.4375 C8.1875 3.25 8.1875 3.25 8.625 5.75 C8.10533333 8.71952381 7.56715617 9.45491154 5.1875 11.25 C2.70703125 11.54296875 2.70703125 11.54296875 0 11.4375 C-0.90105469 11.41042969 -1.80210938 11.38335937 -2.73046875 11.35546875 C-3.41753906 11.32066406 -4.10460938 11.28585937 -4.8125 11.25 C-4.83938151 9.60425434 -4.85884123 7.95838587 -4.875 6.3125 C-4.88660156 5.39597656 -4.89820313 4.47945313 -4.91015625 3.53515625 C-4.74493894 -0.33092873 -4.06478277 0.26654313 0 0 Z " fill="#F0E9EC" transform="translate(1243.8125,374.75)"/>
<path d="M0 0 C-1.67401978 3.95677402 -4.13149285 6.84464213 -7 10 C-7.66 10 -8.32 10 -9 10 C-7.6834994 5.81113445 -4.97532335 0 0 0 Z " fill="#693443" transform="translate(1223,360)"/>
<path d="M0 0 C-3.26913624 1.03115279 -5.86041348 0.9638984 -9.25 0.5625 C-10.14203125 0.46066406 -11.0340625 0.35882813 -11.953125 0.25390625 C-12.62859375 0.17011719 -13.3040625 0.08632813 -14 0 C-14 -0.33 -14 -0.66 -14 -1 C-4.58997722 -2.51708428 -4.58997722 -2.51708428 0 0 Z " fill="#814F5E" transform="translate(1255,358)"/>
</svg>
